<svg width="74" height="73" viewBox="0 0 74 73" fill="none" xmlns="http://www.w3.org/2000/svg">
<path d="M34.5031 20.7146C35.0024 20.7121 35.4933 20.5868 35.9327 20.3496L37.3319 19.6196L38.731 20.3496C39.2323 20.6118 39.7967 20.7291 40.3609 20.6882C40.9251 20.6473 41.4667 20.4498 41.9249 20.118C42.383 19.7863 42.7396 19.3333 42.9545 18.81C43.1694 18.2868 43.2342 17.7139 43.1414 17.1559L42.8677 15.6046L44.0235 14.4792C44.4252 14.0813 44.708 13.5792 44.8402 13.0294C44.9724 12.4796 44.9487 11.9038 44.7717 11.3668C44.5948 10.8297 44.2717 10.3526 43.8387 9.98899C43.4056 9.62539 42.8798 9.3897 42.3202 9.30839L40.7689 9.12589L40.0694 7.6963C39.8203 7.18205 39.4314 6.74834 38.9472 6.44488C38.4631 6.14142 37.9033 5.98047 37.3319 5.98047C36.7605 5.98047 36.2006 6.14142 35.7165 6.44488C35.2323 6.74834 34.8434 7.18205 34.5944 7.6963L33.8948 9.12589L32.3435 9.36922C31.7839 9.45054 31.2581 9.68623 30.8251 10.0498C30.392 10.4134 30.0689 10.8905 29.892 11.4276C29.715 11.9647 29.6913 12.5404 29.8235 13.0902C29.9557 13.64 30.2385 14.1421 30.6402 14.5401L31.796 15.6351L31.5223 17.2167C31.4104 17.784 31.4626 18.3715 31.6727 18.9102C31.8828 19.4489 32.2421 19.9166 32.7085 20.2584C33.2512 20.5778 33.8737 20.7361 34.5031 20.7146Z" stroke="#8F9797" stroke-width="3"/>
<path d="M9.95703 41.042H22.123C22.5319 41.042 22.9247 41.204 23.2139 41.4932C23.5028 41.7822 23.665 42.1743 23.665 42.583V63.875C23.665 64.2837 23.5028 64.6758 23.2139 64.9648C22.9248 65.254 22.5319 65.417 22.123 65.417H9.95703C9.54815 65.417 9.15533 65.254 8.86621 64.9648C8.5773 64.6758 8.41504 64.2837 8.41504 63.875V42.583C8.41513 42.1743 8.57727 41.7822 8.86621 41.4932C9.15533 41.204 9.54816 41.042 9.95703 41.042ZM31.248 28.875H43.415C43.8238 28.875 44.2158 29.0373 44.5049 29.3262C44.794 29.6153 44.957 30.0081 44.957 30.417V63.875C44.957 64.2839 44.794 64.6757 44.5049 64.9648C44.2158 65.254 43.8239 65.417 43.415 65.417H31.248C30.8393 65.4169 30.4472 65.2539 30.1582 64.9648C29.8692 64.6757 29.707 64.2838 29.707 63.875V30.417C29.707 30.0081 29.8691 29.6153 30.1582 29.3262C30.4472 29.0372 30.8394 28.8751 31.248 28.875ZM52.54 47.125H64.707C65.1157 47.1251 65.5079 47.2872 65.7969 47.5762C66.086 47.8653 66.248 48.2581 66.248 48.667V63.875C66.248 64.2838 66.0859 64.6757 65.7969 64.9648C65.5078 65.2539 65.1158 65.4169 64.707 65.417H52.54C52.1312 65.417 51.7393 65.254 51.4502 64.9648C51.1611 64.6757 50.998 64.2839 50.998 63.875V48.667C50.998 48.2581 51.1611 47.8653 51.4502 47.5762C51.7393 47.2873 52.1313 47.125 52.54 47.125Z" stroke="#8F9797" stroke-width="3"/>
</svg>
