<svg width="60" height="48" viewBox="0 0 60 48" fill="none" xmlns="http://www.w3.org/2000/svg">
<rect width="60" height="48" rx="11.25" fill="white" fill-opacity="0.1"/>
<rect x="0.375" y="0.375" width="59.25" height="47.25" rx="10.875" stroke="url(#paint0_linear_4121_3239)" stroke-opacity="0.5" stroke-width="0.75"/>
<path d="M17.9766 30.1934C16.5469 30.1934 15.3955 29.8213 14.5225 29.0771C13.6553 28.3271 13.2217 27.3135 13.2217 26.0361H15.3223C15.3223 26.7158 15.5684 27.249 16.0605 27.6357C16.5586 28.0225 17.1914 28.2158 17.959 28.2158C18.6562 28.2158 19.2451 28.0459 19.7256 27.7061C20.2061 27.3662 20.4463 26.915 20.4463 26.3525C20.4463 26.2295 20.4346 26.1152 20.4111 26.0098C20.3877 25.8984 20.3467 25.7959 20.2881 25.7021C20.2295 25.6084 20.1738 25.5264 20.1211 25.4561C20.0684 25.3799 19.9834 25.3066 19.8662 25.2363C19.7549 25.166 19.6611 25.1074 19.585 25.0605C19.5146 25.0078 19.4004 24.9551 19.2422 24.9023C19.084 24.8438 18.9609 24.7998 18.873 24.7705C18.7852 24.7354 18.6445 24.6943 18.4512 24.6475C18.2637 24.5947 18.123 24.5596 18.0293 24.542C17.9414 24.5186 17.792 24.4805 17.5811 24.4277C16.5088 24.1699 15.7354 23.9268 15.2607 23.6982C14.1943 23.1826 13.5967 22.3945 13.4678 21.334C13.4443 21.1699 13.4326 21 13.4326 20.8242C13.4326 19.6934 13.8281 18.8086 14.6191 18.1699C15.416 17.5312 16.4912 17.2119 17.8447 17.2119C19.2041 17.2119 20.2676 17.5576 21.0352 18.249C21.8086 18.9404 22.1953 19.8838 22.1953 21.0791H20.1562C20.1562 20.4697 19.9336 19.9951 19.4883 19.6553C19.0488 19.3096 18.4863 19.1367 17.8008 19.1367C17.1445 19.1367 16.5967 19.2803 16.1572 19.5674C15.7236 19.8486 15.5068 20.2383 15.5068 20.7363C15.5068 20.9238 15.5361 21.0938 15.5947 21.2461C15.6592 21.3984 15.7617 21.5361 15.9023 21.6592C16.0488 21.7764 16.1895 21.876 16.3242 21.958C16.4648 22.04 16.6611 22.1221 16.9131 22.2041C17.1709 22.2861 17.3848 22.3506 17.5547 22.3975C17.7305 22.4443 17.9766 22.5059 18.293 22.582C19.377 22.8516 20.1592 23.1006 20.6396 23.3291C21.7354 23.8623 22.3623 24.6621 22.5205 25.7285C22.5498 25.9219 22.5645 26.124 22.5645 26.335C22.5645 27.1494 22.3564 27.8525 21.9404 28.4443C21.5303 29.0361 20.9824 29.4756 20.2969 29.7627C19.6113 30.0498 18.8379 30.1934 17.9766 30.1934ZM27.0293 28.0488H32.4697V30H24.9551V17.3965H32.2764V19.3389H27.0293V22.626H31.8105V24.5244H27.0293V28.0488ZM43.9746 29.3848C42.9609 29.9531 41.8271 30.2373 40.5732 30.2373C39.3193 30.2373 38.1826 29.9531 37.1631 29.3848C36.1494 28.8164 35.3555 28.0342 34.7812 27.0381C34.207 26.042 33.9199 24.9287 33.9199 23.6982C33.9199 22.4678 34.207 21.3545 34.7812 20.3584C35.3555 19.3623 36.1494 18.5801 37.1631 18.0117C38.1826 17.4434 39.3193 17.1592 40.5732 17.1592C41.8271 17.1592 42.9609 17.4434 43.9746 18.0117C44.9883 18.5801 45.7793 19.3623 46.3477 20.3584C46.9219 21.3545 47.209 22.4678 47.209 23.6982C47.209 24.9287 46.9219 26.042 46.3477 27.0381C45.7793 28.0342 44.9883 28.8164 43.9746 29.3848ZM40.5732 28.2422C41.874 28.2422 42.9551 27.8115 43.8164 26.9502C44.6777 26.083 45.1084 24.999 45.1084 23.6982C45.1084 22.3975 44.6777 21.3164 43.8164 20.4551C42.9551 19.5879 41.874 19.1543 40.5732 19.1543C39.7178 19.1543 38.9414 19.3535 38.2441 19.752C37.5527 20.1445 37.0107 20.6895 36.6182 21.3867C36.2256 22.0781 36.0293 22.8486 36.0293 23.6982C36.0293 24.5479 36.2256 25.3213 36.6182 26.0186C37.0107 26.71 37.5527 27.2549 38.2441 27.6533C38.9414 28.0459 39.7178 28.2422 40.5732 28.2422Z" fill="white"/>
<defs>
<linearGradient id="paint0_linear_4121_3239" x1="30" y1="0" x2="30" y2="48" gradientUnits="userSpaceOnUse">
<stop stop-color="white"/>
<stop offset="1" stop-color="white" stop-opacity="0.3"/>
</linearGradient>
</defs>
</svg>
