<svg width="56" height="55" viewBox="0 0 56 55" fill="none" xmlns="http://www.w3.org/2000/svg">
<g clip-path="url(#clip0_3942_3709)">
<path d="M54.457 30.4792C53.5404 30.0208 52.1654 29.7917 51.2487 30.25L48.957 31.1667V3.66667C48.957 1.60417 47.3529 0 45.5195 0H40.9362C39.1029 0 37.4987 1.60417 37.4987 3.4375V6.875H31.7695C29.9362 6.875 28.332 8.47917 28.332 10.3125V18.3333H22.6029C20.7695 18.3333 19.1654 19.9375 19.1654 21.7708V33.6875L12.2904 35.2917V34.6042C12.2904 33.2292 11.6029 32.0833 10.457 31.625L7.70703 30.25C7.2487 28.6458 5.8737 27.5 4.26953 27.5H1.97786C1.29036 27.5 0.832031 27.9583 0.832031 28.6458V53.8542C0.832031 54.5417 1.29036 55 1.97786 55H4.26953C5.8737 55 7.2487 53.8542 7.70703 52.25L10.457 50.875C11.3737 50.4167 12.0612 49.2708 12.2904 48.125L23.2904 54.5417C23.7487 54.7708 24.4362 55 25.1237 55C25.582 55 26.2695 54.7708 26.7279 54.5417L54.2279 39.875C55.3737 39.1875 56.0612 38.0417 56.0612 36.8958V33.4583C55.832 32.3125 55.3737 31.1667 54.457 30.4792ZM5.41536 51.5625C5.41536 52.25 4.95703 52.7083 4.26953 52.7083H3.1237V29.7917H4.26953C4.95703 29.7917 5.41536 30.25 5.41536 30.9375V51.5625ZM9.9987 47.8958C9.9987 48.3542 9.76953 48.8125 9.3112 48.8125L7.70703 49.7292V32.7708L9.3112 33.6875C9.76953 33.9167 9.9987 34.1458 9.9987 34.6042V47.8958ZM39.7904 3.4375C39.7904 2.75 40.2487 2.29167 40.9362 2.29167H45.5195C46.207 2.29167 46.6654 2.75 46.6654 3.4375V31.8542L39.7904 34.375V3.4375ZM30.6237 10.3125C30.6237 9.625 31.082 9.16667 31.7695 9.16667H37.4987V35.2917L34.2904 36.4375L33.6029 33.9167C33.1445 32.5417 31.9987 31.625 30.8529 31.3958V10.3125H30.6237ZM21.457 21.7708C21.457 21.0833 21.9154 20.625 22.6029 20.625H28.332V31.625L21.457 33.2292V21.7708ZM53.5404 36.6667C53.5404 37.125 53.3112 37.5833 52.8529 37.5833L25.3529 52.4792C25.1237 52.7083 24.6654 52.7083 24.207 52.4792L12.2904 45.6042V37.5833L29.9362 33.6875C30.6237 33.4583 31.082 33.9167 31.3112 34.6042L32.457 38.2708C32.457 38.5 32.457 38.9583 32.457 39.1875C32.2279 39.4167 31.9987 39.6458 31.7695 39.6458L24.8945 41.25C24.207 41.4792 23.9779 41.9375 23.9779 42.625C24.207 43.0833 24.6654 43.5417 25.1237 43.5417H25.3529L32.2279 41.9375C33.1445 41.7083 33.832 41.0208 34.2904 40.3333C34.5195 39.875 34.7487 39.4167 34.7487 38.9583L52.1654 32.5417C52.6237 32.3125 52.8529 32.5417 53.3112 32.7708C53.5404 33 53.7695 33.2292 53.7695 33.6875V36.6667H53.5404Z" fill="#8F9797"/>
</g>
<defs>
<clipPath id="clip0_3942_3709">
<rect width="55" height="55" fill="white" transform="translate(0.832031)"/>
</clipPath>
</defs>
</svg>
