<svg width="104" height="83" viewBox="0 0 104 83" fill="none" xmlns="http://www.w3.org/2000/svg">
<path d="M85.9523 52.7659H83.5831V14.8585C83.5831 12.8958 81.992 11.3047 80.0292 11.3047H23.1682C21.2055 11.3047 19.6144 12.8958 19.6144 14.8585V52.7659H17.2452C16.5909 52.7659 16.0605 53.2962 16.0605 53.9505V58.6889C16.0645 61.9585 18.714 64.608 21.9836 64.6119H81.2139C84.4834 64.608 87.133 61.9585 87.1369 58.6889V53.9505C87.1369 53.2962 86.6065 52.7659 85.9523 52.7659ZM21.9836 14.8585C21.9836 14.2043 22.5139 13.6739 23.1682 13.6739H80.0292C80.6835 13.6739 81.2139 14.2043 81.2139 14.8585V52.7659H21.9836V14.8585ZM84.7677 58.6889C84.7677 60.6516 83.1766 62.2427 81.2139 62.2427H21.9836C20.0209 62.2427 18.4298 60.6516 18.4298 58.6889V55.1351H84.7677V58.6889Z" fill="white" fill-opacity="0.53"/>
<path fill-rule="evenodd" clip-rule="evenodd" d="M25.5371 17.2285C24.8829 17.2285 24.3525 17.7589 24.3525 18.4131V20.7823C24.3525 21.4366 24.8829 21.9669 25.5371 21.9669C26.1914 21.9669 26.7218 21.4366 26.7218 20.7823V18.4131C26.7218 17.7589 26.1914 17.2285 25.5371 17.2285Z" fill="white" fill-opacity="0.53"/>
<path fill-rule="evenodd" clip-rule="evenodd" d="M25.5371 25.5195C24.8829 25.5195 24.3525 26.0499 24.3525 26.7041V48.027C24.3525 48.6813 24.8829 49.2116 25.5371 49.2116C26.1914 49.2116 26.7218 48.6813 26.7218 48.027V26.7041C26.7218 26.0499 26.1914 25.5195 25.5371 25.5195Z" fill="white" fill-opacity="0.53"/>
<rect x="62.832" y="26.1133" width="24.8767" height="45.6073" rx="3.4551" fill="#1E2F2F"/>
<rect x="64.2141" y="27.4953" width="22.1126" height="42.8432" rx="2.07306" stroke="white" stroke-opacity="0.53" stroke-width="2.76408"/>
<path fill-rule="evenodd" clip-rule="evenodd" d="M77.5703 65.1846C77.5703 64.5304 77.0399 64 76.3857 64L74.0165 64C73.3623 64 72.8319 64.5304 72.8319 65.1846C72.8319 65.8388 73.3623 66.3692 74.0165 66.3692L76.3857 66.3692C77.0399 66.3692 77.5703 65.8388 77.5703 65.1846Z" fill="#CAD1D1"/>
</svg>
