<svg width="34" height="32" viewBox="0 0 34 32" fill="none" xmlns="http://www.w3.org/2000/svg">
<path d="M7.23702 3.55714C7.23656 4.50008 6.8713 5.40421 6.22158 6.07063C5.57187 6.73706 4.69092 7.11119 3.77254 7.11072C2.85416 7.11025 1.97358 6.73521 1.32452 6.06812C0.675448 5.40103 0.311065 4.49652 0.311524 3.55358C0.311983 2.61064 0.677248 1.70651 1.32696 1.04008C1.97668 0.373658 2.85763 -0.000471025 3.776 4.45062e-07C4.69438 0.000471915 5.57496 0.375505 6.22403 1.0426C6.8731 1.70969 7.23748 2.6142 7.23702 3.55714ZM7.34091 9.74346H0.415406V32H7.34091V9.74346ZM18.2832 9.74346H11.3923V32H18.2139V20.3207C18.2139 13.8143 26.4726 13.2099 26.4726 20.3207V32H33.3115V17.903C33.3115 6.93473 21.088 7.34359 18.2139 12.73L18.2832 9.74346Z" fill="white"/>
</svg>
