<svg width="37" height="28" viewBox="0 0 37 28" fill="none" xmlns="http://www.w3.org/2000/svg">
<g clip-path="url(#clip0_3909_9134)">
<mask id="mask0_3909_9134" style="mask-type:luminance" maskUnits="userSpaceOnUse" x="0" y="0" width="37" height="28">
<path d="M0 0H37V28H0V0Z" fill="white"/>
</mask>
<g mask="url(#mask0_3909_9134)">
<path d="M0 0H37V28H0V0Z" fill="#CC0000"/>
<path d="M0 0H37V2.00083H0V0Z" fill="#CC0000"/>
<path d="M0 2.00098H37V4.00181H0V2.00098Z" fill="white"/>
<path d="M0 4.00195H37V6.00279H0V4.00195Z" fill="#CC0000"/>
<path d="M0 6.00293H37V7.9921H0V6.00293Z" fill="white"/>
<path d="M0 7.99707H37V9.9979H0V7.99707Z" fill="#CC0000"/>
<path d="M0 9.99805H37V11.9989H0V9.99805Z" fill="white"/>
<path d="M0 11.999H37V13.9999H0V11.999Z" fill="#CC0000"/>
<path d="M0 14H37V16.0008H0V14Z" fill="white"/>
<path d="M0 16.001H37V18.0018H0V16.001Z" fill="#CC0000"/>
<path d="M0 18.002H37V20.0028H0V18.002Z" fill="white"/>
<path d="M0 20.0029H37V21.9921H0V20.0029Z" fill="#CC0000"/>
<path d="M0 21.9971H37V23.9979H0V21.9971Z" fill="white"/>
<path d="M0 23.998H37V25.9989H0V23.998Z" fill="#CC0000"/>
<path d="M0 25.999H37V27.9999H0V25.999Z" fill="white"/>
<path d="M0 0.0292969H18.5V16.0301H0V0.0292969Z" fill="#000066"/>
<path d="M11.9962 4.30457L12.343 6.67873L13.6727 4.6954L12.9559 6.98207L15.0082 5.76873L13.3837 7.51873L15.754 7.33207L13.5398 8.1954L15.754 9.05873L13.3837 8.87207L15.0082 10.6221L12.9559 9.40873L13.667 11.7012L12.3373 9.71207L11.9904 12.0862L11.6493 9.71207L10.3196 11.6954L11.0365 9.40873L8.98414 10.6221L10.6029 8.87207L8.23258 9.05873L10.4526 8.1954L8.23836 7.33207L10.6087 7.51873L8.98414 5.76873L11.0365 6.98207L10.3196 4.68957L11.6493 6.67873L11.9962 4.30457ZM10.071 4.40373C9.44512 4.12113 8.75902 4.00124 8.07539 4.05502C7.39175 4.1088 6.73236 4.33453 6.15743 4.7116C5.5825 5.08867 5.11036 5.60507 4.78411 6.21362C4.45786 6.82218 4.28791 7.50351 4.28977 8.1954C4.28791 8.88728 4.45786 9.56861 4.78411 10.1772C5.11036 10.7857 5.5825 11.3021 6.15743 11.6792C6.73236 12.0563 7.39175 12.282 8.07539 12.3358C8.75902 12.3896 9.44512 12.2697 10.071 11.9871C9.37985 12.488 8.5651 12.7869 7.71644 12.8507C6.86779 12.9145 6.01814 12.7408 5.26102 12.3487C4.50476 11.9561 3.87044 11.3607 3.42779 10.628C2.98513 9.89525 2.75128 9.05354 2.75195 8.1954C2.75224 7.33748 2.9869 6.49623 3.43016 5.76411C3.87342 5.032 4.50812 4.43734 5.26451 4.04549C6.0209 3.65363 6.86971 3.47975 7.71767 3.54296C8.56562 3.60616 9.3799 3.90399 10.071 4.40373Z" fill="#FFCC00"/>
</g>
</g>
<defs>
<clipPath id="clip0_3909_9134">
<rect width="37" height="28" rx="2" fill="white"/>
</clipPath>
</defs>
</svg>
