<svg width="38" height="28" viewBox="0 0 38 28" fill="none" xmlns="http://www.w3.org/2000/svg">
<g clip-path="url(#clip0_3909_9161)">
<mask id="mask0_3909_9161" style="mask-type:luminance" maskUnits="userSpaceOnUse" x="0" y="0" width="38" height="28">
<path d="M0.00195312 0H37.3316V28H0.00195312V0Z" fill="white"/>
</mask>
<g mask="url(#mask0_3909_9161)">
<path fill-rule="evenodd" clip-rule="evenodd" d="M-2.33301 0H39.667V28H-2.33301V0Z" fill="#165D31"/>
<path fill-rule="evenodd" clip-rule="evenodd" d="M8.2494 7.93486C8.20565 8.59111 8.14003 9.73955 8.70331 9.85986C9.37596 9.92549 9.00409 8.72236 9.25018 8.50361C9.29393 8.39424 9.37596 8.39424 9.38143 8.53095V9.55361C9.38143 9.88174 9.60018 9.98017 9.76425 10.0458C9.93925 10.0349 10.0596 10.0458 10.1252 10.2099L10.2127 11.9763C10.2127 11.9763 10.6174 12.0966 10.6392 10.9864C10.6557 10.3302 10.508 9.78877 10.5955 9.66299C10.5955 9.5372 10.7596 9.53174 10.8689 9.59189C11.0439 9.7122 11.1205 9.86533 11.3939 9.81064C11.8096 9.69033 12.0611 9.48799 12.0666 9.1708C12.0584 8.85909 11.9935 8.55147 11.8752 8.26299C11.8971 8.2083 11.7986 8.06064 11.8205 8.00595C11.8916 8.12627 12.0064 8.11533 12.0283 8.00595C11.9572 7.77627 11.8478 7.55205 11.6728 7.45908C11.5252 7.32783 11.3064 7.3497 11.2353 7.62314C11.1916 7.93486 11.3447 8.30127 11.5689 8.60752C11.6182 8.72236 11.6838 8.91924 11.6564 9.09424C11.5325 9.15986 11.4176 9.13799 11.3119 9.02861C11.3119 9.02861 10.9838 8.78252 10.9838 8.72236C11.0713 8.16455 11.0002 8.09892 10.951 7.94033C10.9182 7.72705 10.8142 7.65595 10.7322 7.51377C10.6502 7.42627 10.5408 7.42627 10.4861 7.51377C10.3385 7.76533 10.4096 8.30674 10.5135 8.55283C10.59 8.77705 10.7049 8.91924 10.6502 8.91924C10.6064 9.04502 10.5135 9.0122 10.4424 8.86455C10.3626 8.55376 10.324 8.23383 10.3275 7.91299C10.3002 7.66142 10.2674 7.12549 10.0978 6.9833C9.9994 6.85205 9.85175 6.91767 9.79706 7.03799C9.78252 7.28229 9.78801 7.52738 9.81346 7.7708C9.92284 8.17549 9.96112 8.53642 10.0158 8.94658C10.0322 9.49892 9.69862 9.1872 9.71503 8.9083C9.78677 8.55767 9.78117 8.19561 9.69862 7.84736C9.64393 7.70517 9.58378 7.67236 9.44706 7.69424C9.34315 7.69424 9.07518 7.98408 8.99862 8.47627C8.99862 8.47627 8.933 8.72783 8.90565 8.95205C8.86737 9.20361 8.70331 9.38955 8.583 8.91924C8.48456 8.5747 8.41893 7.73799 8.25487 7.93486H8.2494Z" fill="white"/>
<path fill-rule="evenodd" clip-rule="evenodd" d="M10.0811 10.6207L8.33105 11.4629C8.34746 11.0637 9.15684 10.3473 9.71465 10.3418C10.0701 10.3473 9.98262 10.4785 10.0756 10.6207H10.0811Z" fill="white"/>
<path fill-rule="evenodd" clip-rule="evenodd" d="M9.76981 11.1673C8.85106 13.5462 11.93 13.8798 12.2745 11.2657C12.3073 11.1563 12.4386 11.0524 12.4604 11.2274C12.3893 13.5954 10.0761 13.754 9.68231 13.0102C9.58979 12.7543 9.5435 12.484 9.54559 12.2118C9.4909 11.747 9.24481 11.9274 9.20652 12.3868C9.16824 12.6438 9.17918 12.7149 9.17918 12.961C9.29949 14.8313 12.28 14.0274 12.7667 12.4852C13.0237 11.6321 12.7229 11.0032 12.8596 11.0032C13.155 11.3204 13.5706 11.047 13.6636 10.9376C13.7018 10.8829 13.8003 10.8446 13.8659 10.9157C14.0956 11.0798 14.5003 11.0032 14.5878 10.7134C14.6388 10.4217 14.6716 10.1264 14.6862 9.82743C14.4948 9.88212 14.3581 9.9204 14.3417 10.0024L14.3034 10.254C14.287 10.336 14.1284 10.336 14.1175 10.2321C14.0464 9.904 13.7511 9.86572 13.5706 10.3688C13.4557 10.4673 13.237 10.4892 13.2151 10.3415C13.2425 10.0024 13.1057 9.95868 12.8323 10.1173L12.5698 8.13759C12.6792 8.13759 12.7886 8.21962 12.8925 8.08837C12.7831 7.7329 12.537 7.01103 12.4003 6.95634C12.3401 6.87978 12.2854 6.929 12.1979 6.95087C12.0557 6.99462 11.9245 7.11494 11.9682 7.35556C12.1323 8.38368 12.2417 9.16572 12.4112 10.1993C12.4386 10.3142 12.3401 10.4727 12.2089 10.4563C11.9901 10.3087 11.9354 10.0079 11.5526 10.0188C11.2792 10.0188 10.9729 10.3196 10.9346 10.604C10.8854 10.8337 10.869 11.0798 10.9346 11.2767C11.1261 11.5063 11.3557 11.4845 11.5581 11.4352C11.7221 11.3642 11.8589 11.2001 11.919 11.2384C11.9573 11.2876 11.9245 11.8345 11.137 12.2501C10.6612 12.4688 10.2784 12.5126 10.0761 12.1243C9.95027 11.8782 10.087 10.954 9.76981 11.1673Z" fill="white"/>
<path fill-rule="evenodd" clip-rule="evenodd" d="M13.6902 8.75014C13.8706 8.68452 14.7456 7.67827 14.7456 7.67827L14.6144 7.56889C14.567 7.52879 14.567 7.48868 14.6144 7.44858C14.8331 7.31733 14.762 7.04389 14.6527 6.91264C14.5781 6.87766 14.4965 6.85997 14.4141 6.86092C14.3318 6.86187 14.2506 6.88142 14.1769 6.91811C14.0238 7.06577 13.9909 7.30092 14.1113 7.44311C14.2261 7.4978 14.3409 7.61811 14.2644 7.68374C13.9034 8.06655 12.9245 8.72827 13.0394 8.75014C13.0613 8.78296 13.6683 8.78296 13.6847 8.75014H13.6902ZM8.38547 12.3048C8.05735 12.8298 8.03 13.6119 8.21047 13.847C8.30891 13.9564 8.4675 14.0056 8.58235 13.9673C8.79016 13.8798 8.88313 13.4587 8.83391 13.3111C8.76829 13.2017 8.70266 13.1889 8.63704 13.2728C8.49485 13.5681 8.43469 13.3658 8.41829 13.2017C8.40261 12.9239 8.41728 12.6451 8.46204 12.3705C8.50032 12.1408 8.46204 12.2064 8.38547 12.3048ZM22.4456 11.4681C22.1284 10.779 21.6855 10.1009 21.5488 9.84389C21.1226 9.17018 20.6701 8.51343 20.1925 7.87514C19.8534 7.47046 20.7503 8.04467 20.0831 7.2353L19.5964 6.82514C19.487 6.74858 19.2245 6.60639 19.1808 6.83608C19.1589 7.04389 19.1698 7.15327 19.2027 7.3228C19.23 7.43217 19.3941 7.62358 19.4761 7.73296C20.5973 9.21797 21.582 10.8012 22.4183 12.4634C22.5605 12.3923 22.5277 11.583 22.4456 11.4681Z" fill="white"/>
<path fill-rule="evenodd" clip-rule="evenodd" d="M21.0508 13.7534C20.9852 13.8244 21.2039 14.1252 21.4883 14.1252C21.9586 14.0705 22.3742 13.808 22.757 13.108C22.9126 12.8752 23.0118 12.6093 23.0469 12.3315C23.0932 11.0039 22.9868 9.67538 22.7297 8.3721C22.7133 8.26273 22.7297 8.13148 22.7406 8.09866C22.7734 8.06038 22.8773 8.09866 22.932 8.00569C23.0141 7.92366 22.7133 7.24007 22.5492 6.98304C22.4945 6.86273 22.4672 6.78616 22.3688 6.99398C22.25 7.22328 22.1934 7.47973 22.2047 7.73773C22.4289 9.29632 22.5 10.658 22.6422 12.2166C22.6586 12.3698 22.6367 12.5885 22.5328 12.676C22.1204 13.1357 21.6153 13.5029 21.0508 13.7534ZM27.4219 13.7479C27.0828 13.9448 27.0828 14.169 27.3562 14.1744C27.8266 14.1198 28.3844 14.0815 28.7672 13.5018C28.9024 13.2288 28.9806 12.931 28.9969 12.6268C29.0657 11.3196 28.9794 10.0089 28.7398 8.7221C28.7289 8.61273 28.6797 8.35569 28.6961 8.32288C28.7289 8.24632 28.882 8.32835 28.9367 8.24085C29.0133 8.15882 28.5375 7.54632 28.368 7.28382C28.3133 7.16351 28.2914 7.08694 28.1875 7.29476C28.0763 7.52584 28.0418 7.78644 28.0891 8.03851C28.3406 9.73382 28.5266 11.0026 28.5648 12.501C28.543 12.6432 28.5375 12.7198 28.4719 12.9002C28.3242 13.0862 28.1602 13.3268 28.007 13.4416C27.8539 13.551 27.5258 13.6604 27.4219 13.7479Z" fill="white"/>
<path fill-rule="evenodd" clip-rule="evenodd" d="M27.6741 12.2329C27.6778 11.8355 27.676 11.4892 27.6687 11.1939C27.6651 10.9391 27.6093 10.6878 27.5046 10.4556C27.4062 10.2314 27.4663 10.0509 27.4171 9.81026C27.3734 9.56964 27.3843 9.2087 27.3187 8.92979C27.2968 8.82042 27.2421 8.46495 27.2585 8.42667C27.2859 8.35011 27.3898 8.42667 27.4445 8.33917C27.521 8.25714 27.171 7.35479 26.996 7.09776C26.9359 6.98292 26.8155 7.0212 26.6788 7.20714C26.5421 7.33292 26.5913 7.61182 26.646 7.87979C26.9796 9.6462 27.2366 11.2485 27.182 12.9274C27.1601 13.0696 27.6741 12.5009 27.6741 12.2329ZM25.1749 10.0454C24.9616 10.0345 24.5187 9.62432 24.3874 9.38917C24.3659 9.3317 24.3568 9.27035 24.3606 9.20911C24.3643 9.14787 24.3809 9.0881 24.4093 9.0337C24.4913 8.97901 24.6116 8.92432 24.7046 8.97901C24.7046 8.97901 24.7976 9.11026 24.7812 9.12667C24.8905 9.18136 24.9452 9.15401 24.9562 9.10479C24.9616 9.02276 24.9234 8.97354 24.9234 8.88604C24.9726 8.63448 25.2515 8.5962 25.3609 8.75479C25.4374 8.85323 25.4702 9.05558 25.4757 9.19229C25.4757 9.26339 25.3663 9.18136 25.2952 9.19229C25.2351 9.21417 25.2187 9.29073 25.2132 9.35636C25.2023 9.53683 25.1804 9.82667 25.1749 10.04V10.0454ZM21.2484 12.6704C21.303 12.1345 21.2265 11.1775 21.221 10.8603C21.1918 10.0445 21.1242 9.23061 21.0187 8.4212C20.953 7.96182 21.2046 8.47042 21.1718 8.20245C21.0898 7.74854 20.8382 7.43682 20.5374 7.02667C20.4445 6.88995 20.4445 6.86261 20.2968 7.05948C20.1327 7.42589 20.2749 7.68292 20.3187 7.97276C20.532 8.91339 20.6577 9.77745 20.7179 10.636C20.7809 11.5279 20.7882 12.4229 20.7398 13.3157C20.9038 13.3212 21.1554 13.0587 21.2484 12.6704Z" fill="white"/>
<path fill-rule="evenodd" clip-rule="evenodd" d="M28.4017 11.813C28.0243 11.1786 27.4611 10.5005 27.3079 10.2434C26.8008 9.53528 26.2682 8.84576 25.7111 8.17625C25.2462 7.68406 25.9298 8.09422 25.6236 7.71141C25.3665 7.4325 25.2954 7.33953 25.0712 7.17C24.9619 7.09891 24.8962 6.96219 24.8525 7.19734C24.835 7.40103 24.8314 7.60566 24.8415 7.80984C24.8415 7.90281 24.94 8.08328 25.0275 8.19266C26.1595 9.58719 27.4009 11.0091 28.3962 12.7973C28.5384 12.7262 28.4892 11.9223 28.3962 11.813H28.4017Z" fill="white"/>
<path fill-rule="evenodd" clip-rule="evenodd" d="M11.3721 10.6482C11.3447 10.6975 11.2846 10.7576 11.3065 10.8178C11.3429 10.8688 11.3903 10.8925 11.4486 10.8889C11.5088 10.8889 11.5963 10.9053 11.6127 10.8725C11.6492 10.8287 11.6601 10.7686 11.6455 10.692C11.5799 10.5279 11.4049 10.5936 11.3721 10.6482Z" fill="#165D31"/>
<path fill-rule="evenodd" clip-rule="evenodd" d="M24.0369 19.8242C24.54 19.846 24.8682 19.8515 25.3111 19.9007L25.8361 19.846C26.4158 19.7914 26.4377 20.6718 26.4377 20.6718C26.4377 21.1914 26.2354 21.2187 25.9783 21.2734C25.8307 21.2953 25.7596 21.1859 25.6775 21.0765C25.5539 21.1162 25.4221 21.1237 25.2947 21.0984C25.0833 21.0911 24.8736 21.082 24.6658 21.071C24.4471 21.0546 24.3268 21.0984 24.1025 21.0765C24.0588 21.1476 23.9932 21.246 23.8619 21.2187C23.7525 21.2023 23.6158 20.8906 23.6541 20.6445C23.7361 20.4695 23.7088 20.5296 23.7088 20.4531C21.6525 20.3984 19.5799 20.3054 17.5674 20.3328C15.9924 20.3382 14.4393 20.4039 12.8807 20.4695C12.0494 20.4585 11.415 20.3273 10.9775 19.6875C11.0213 19.6875 13.0994 19.8023 13.7064 19.764C14.8275 19.7531 15.8557 19.6601 16.9986 19.6273C19.2518 19.6656 21.4885 19.6656 23.7416 19.8242C23.5229 19.6765 23.5229 19.332 23.851 19.2445C23.8783 19.2226 23.8947 19.414 23.9439 19.4085C24.2119 19.3921 24.0916 19.7531 24.0369 19.8242ZM14.9807 7.39917C14.6416 8.37261 15.1775 9.44448 15.5494 9.34057C15.8229 9.44995 15.9869 8.93589 16.0963 8.37807C16.1783 8.21948 16.233 8.20307 16.2713 8.28511C16.2604 9.02886 16.326 9.19839 16.5174 9.42261C16.9439 9.75073 17.2994 9.46636 17.3268 9.43901L17.6549 9.10542C17.7351 9.02521 17.8281 9.01974 17.9338 9.08901C18.0377 9.18198 18.0213 9.34057 18.24 9.44995C18.426 9.52651 18.8143 9.47182 18.9072 9.31323C19.0275 9.09995 19.0604 9.02886 19.115 8.95229C19.2025 8.83745 19.3502 8.88667 19.3502 8.92495C19.3338 8.99057 19.2463 9.05073 19.3064 9.17104C19.4158 9.24761 19.4377 9.19839 19.4979 9.18198C19.7166 9.07261 19.8807 8.60229 19.8807 8.60229C19.8861 8.42729 19.7877 8.43823 19.7221 8.48198L19.5525 8.59682C19.4432 8.61323 19.2408 8.68432 19.1369 8.52573C19.033 8.33979 19.033 8.07182 18.9564 7.88042C18.9564 7.86948 18.8143 7.57964 18.9455 7.56323C19.0111 7.57417 19.1479 7.61245 19.1697 7.49761C19.2354 7.38276 19.0275 7.06011 18.8799 6.89604C18.7541 6.75932 18.5791 6.74292 18.4096 6.88511C18.2893 6.99448 18.3057 7.11479 18.2838 7.22964C18.2639 7.31199 18.2635 7.39784 18.2824 7.48041C18.3014 7.56298 18.3393 7.64 18.3932 7.70542C18.5135 7.93511 18.7268 8.23589 18.6557 8.66245C18.6557 8.66245 18.5299 8.85932 18.3111 8.83198C18.2182 8.81557 18.0705 8.77729 17.9939 8.18667C17.9338 7.74917 18.0049 7.12573 17.8189 6.83589C17.7479 6.65542 17.6986 6.48589 17.5346 6.78667C17.4908 6.90698 17.2994 7.08745 17.4361 7.45386C17.5655 7.78404 17.6033 8.14303 17.5455 8.49292C17.4635 8.61323 17.4471 8.65151 17.3432 8.76636C17.201 8.93042 17.0424 8.88667 16.9221 8.82651C16.8127 8.75542 16.7252 8.71714 16.6705 8.47104C16.6814 8.08823 16.7033 7.45932 16.6322 7.32807C16.5283 7.12026 16.3588 7.19682 16.2877 7.26245C15.9631 7.62434 15.7454 8.06925 15.6588 8.54761C15.5604 8.86479 15.4564 8.77182 15.3854 8.64604C15.2104 8.48198 15.1939 7.18589 14.9807 7.39917Z" fill="white"/>
<path fill-rule="evenodd" clip-rule="evenodd" d="M16.0091 9.52119C16.1677 9.41182 16.0966 9.33525 16.3263 9.56494C16.6228 10.0895 16.7949 10.6751 16.8294 11.2767C16.8185 11.4188 16.9169 11.5063 16.9661 11.4735C16.988 11.1454 17.7919 10.686 18.5302 10.6204C18.6396 10.5931 18.5849 10.3798 18.6013 10.2704C18.5576 9.86025 18.831 9.48838 19.2138 9.46103C19.7388 9.5376 19.9138 9.8165 19.9247 10.2376C19.8646 11.0579 19.0115 11.1946 18.5357 11.2603C18.4646 11.2876 18.4318 11.3204 18.5357 11.3587L20.5372 11.3696L20.6411 11.4243C20.6521 11.479 20.6083 11.4353 20.5318 11.5665C20.4224 11.7602 20.3535 11.9742 20.3294 12.1954C19.7333 12.3923 19.1154 12.4688 18.4919 12.5509C18.2732 12.6603 18.1638 12.8079 18.2076 12.972C18.2841 13.1524 18.7654 13.3384 18.7654 13.3438C18.8583 13.3985 18.9622 13.5353 18.738 13.8142C17.7646 13.7704 17.0044 13.3548 16.7419 12.7696C16.6654 12.7095 16.5779 12.7696 16.5232 12.8462C16.1404 13.3384 15.7685 13.7759 15.1177 14.0165C14.7349 14.1149 14.3357 13.9563 14.1497 13.7048C14.024 13.5571 14.0294 13.3985 13.9857 13.3657C13.7724 13.4587 11.9677 14.2243 12.1974 13.8634C12.6349 13.3985 13.4005 13.0485 14.0677 12.5892C14.1169 12.4306 14.2044 11.9056 14.4669 11.736C14.4833 11.736 14.4286 12.0423 14.4341 12.1735C14.4341 12.2829 14.4232 12.3212 14.4451 12.2938C14.4943 12.2665 15.3036 11.6267 15.3747 11.4298C15.4513 11.3204 15.3911 11.036 15.3911 11.0251C15.238 10.6313 15.0247 10.5985 14.9482 10.4017C14.8771 10.1446 14.9099 9.84932 15.0576 9.76182C15.1924 9.64879 15.3365 9.65791 15.4896 9.78916C15.6536 9.93682 15.7958 10.2267 15.8396 10.4399C15.8122 10.522 15.6208 10.3853 15.5661 10.4235C15.6714 10.5445 15.7414 10.6921 15.7685 10.8501C15.8779 11.2985 15.8451 11.4735 15.7357 11.7634C15.3747 12.5235 14.9154 12.7478 14.5107 13.0321C14.4997 13.0321 14.4943 13.2235 14.6419 13.3274C14.6966 13.3821 14.9099 13.4095 15.156 13.3274C15.6807 13.0341 16.1055 12.5903 16.3755 12.0532C16.422 11.6438 16.3772 11.2292 16.2443 10.8392C16.0857 10.4728 15.8997 9.95322 15.8997 9.94228C15.8943 9.7126 15.9107 9.63603 16.0091 9.52119ZM10.7701 7.41025C10.9997 7.51963 11.4372 7.47041 11.4154 7.09853L11.4044 6.929C11.3607 6.81963 11.2294 6.84697 11.2021 6.95635C11.1911 6.99463 11.2185 7.05478 11.1857 7.07119C11.1638 7.09307 11.0927 7.08213 11.0927 6.97822C11.0891 6.94176 11.0763 6.9126 11.0544 6.89072C11.0471 6.88343 11.0307 6.87978 11.0052 6.87978C10.9724 6.87978 10.9724 6.88525 10.956 6.9126C10.9487 6.93812 10.9432 6.96728 10.9396 7.0001C10.9359 7.03291 10.9214 7.05114 10.8958 7.05478C10.863 7.05478 10.8685 7.05478 10.8411 7.04385C10.8266 7.03291 10.8174 7.01468 10.8138 6.98916L10.7974 6.90166C10.7865 6.88708 10.7682 6.87614 10.7427 6.86885C10.6169 6.86885 10.606 7.0165 10.6169 7.07119C10.606 7.08213 10.6005 7.33916 10.7701 7.41025Z" fill="white"/>
<path fill-rule="evenodd" clip-rule="evenodd" d="M17.5238 10.2648C17.7535 10.3742 18.3058 10.314 18.1691 9.95855L18.1582 9.78355C18.1089 9.67417 17.9832 9.70152 17.9558 9.81636C17.9449 9.84917 17.9722 9.90933 17.9339 9.92573C17.9175 9.94761 17.841 9.93667 17.8464 9.83823C17.8428 9.80178 17.83 9.77079 17.8082 9.74527C17.7972 9.73797 17.779 9.73433 17.7535 9.73433C17.7261 9.73433 17.7261 9.74527 17.7097 9.77261C17.6988 9.79813 17.6933 9.8273 17.6933 9.86011C17.686 9.88928 17.6696 9.90751 17.6441 9.9148C17.6167 9.9148 17.6222 9.9148 17.6003 9.89839C17.5821 9.88745 17.5712 9.87105 17.5675 9.84917L17.5511 9.76167C17.5402 9.74344 17.522 9.7325 17.4964 9.72886C17.3707 9.72886 17.3597 9.87105 17.3652 9.92573C17.3597 9.93667 17.3542 10.1992 17.5292 10.2648H17.5238ZM21.4613 9.08355C21.691 9.19292 22.123 9.1437 22.1066 8.7773L22.0957 8.6023C22.0464 8.49292 21.9207 8.52027 21.8933 8.62964C21.8824 8.66792 21.9097 8.72808 21.8714 8.74995C21.855 8.76636 21.7785 8.75542 21.7839 8.65152C21.7803 8.61506 21.7675 8.58589 21.7457 8.56402C21.7347 8.55672 21.7165 8.55308 21.691 8.55308C21.6654 8.55308 21.6509 8.56584 21.6472 8.59136L21.6308 8.67339C21.6272 8.70985 21.6108 8.72808 21.5816 8.72808C21.5378 8.72808 21.5597 8.72808 21.5378 8.71714C21.5196 8.7062 21.5087 8.6898 21.505 8.66792C21.505 8.63146 21.4996 8.60047 21.4886 8.57495C21.474 8.56037 21.4558 8.55126 21.4339 8.54761C21.3082 8.54761 21.2972 8.6898 21.3027 8.74448C21.2972 8.75542 21.2917 9.01245 21.4667 9.08355H21.4613ZM23.5011 12.0531C23.1019 12.507 23.2769 13.2562 23.3699 13.4203C23.5011 13.6828 23.605 13.8523 23.8621 13.9835C24.0972 14.1531 24.2832 14.0492 24.3816 13.9289C24.6167 13.6828 24.6222 13.0539 24.7316 12.9335C24.8082 12.7039 25.005 12.7421 25.098 12.846C25.1858 12.9687 25.3022 13.0682 25.4371 13.1359C25.6558 13.3273 25.9183 13.3656 26.1808 13.1906C26.3558 13.0867 26.4707 12.9609 26.5746 12.7039C26.6839 12.3976 26.6292 10.9757 26.6019 10.1335L26.3722 8.95777C26.3722 8.94683 26.3449 8.39995 26.3175 8.27417C26.3175 8.21948 26.3011 8.20308 26.3558 8.20855C26.416 8.26323 26.4214 8.26323 26.4652 8.27964C26.5199 8.29058 26.5746 8.18667 26.5363 8.09917L25.9894 7.08198C25.9457 7.03823 25.8855 6.99448 25.8144 7.09292C25.7716 7.13019 25.7376 7.17651 25.7149 7.22853C25.6922 7.28056 25.6814 7.33697 25.6832 7.3937C25.705 7.63797 25.7287 7.88042 25.7542 8.12105L25.973 9.35698C26.0441 10.232 26.0605 10.9539 26.1316 11.8343C26.1207 12.2062 26.0058 12.5289 25.8964 12.5781C25.8964 12.5781 25.7324 12.671 25.623 12.5671C25.541 12.5343 25.2183 12.0257 25.2183 12.0257C25.0542 11.8781 24.9449 11.9164 24.83 12.0257C24.5019 12.3429 24.3597 12.9226 24.1355 13.3273C24.0808 13.4203 23.9167 13.4914 23.7417 13.3218C23.2933 12.7039 23.5558 11.8289 23.5011 12.0531ZM21.5652 6.92886C21.773 7.01089 21.9152 7.43198 21.8714 7.6398C21.8277 7.88589 21.7183 8.15933 21.6417 8.12652C21.5542 8.0937 21.6964 7.87495 21.6144 7.64527C21.5707 7.49214 21.2863 7.2187 21.3191 7.14214C21.2644 6.97261 21.4394 6.89605 21.5652 6.92339V6.92886Z" fill="white"/>
<path fill-rule="evenodd" clip-rule="evenodd" d="M24.168 12.305C24.2063 11.8018 24.1352 11.4956 24.1243 11.2003C24.1133 10.905 23.7907 8.65183 23.725 8.43308C23.643 8.00652 24.0368 8.3784 23.993 8.12683C23.8563 7.82058 23.5227 7.36668 23.4188 7.09871C23.3532 6.98933 23.3805 6.87996 23.2383 7.07136C23.1153 7.40682 23.0722 7.76635 23.1125 8.12136C23.4516 9.88777 23.7961 11.3534 23.7414 13.0323C23.9055 13.0323 24.086 12.6659 24.168 12.305ZM27.6899 7.64011C27.8813 7.73308 27.9907 8.25808 27.9688 8.40574C27.9305 8.67918 27.8321 8.97449 27.761 8.93621C27.6789 8.9034 27.7774 8.53152 27.7391 8.41668C27.6954 8.25261 27.4383 7.9573 27.4657 7.8698C27.411 7.68386 27.575 7.6073 27.6899 7.64011ZM13.7063 11.3534C13.8868 11.4245 13.9961 11.8073 13.9797 11.9167C13.936 12.119 13.843 12.3378 13.7719 12.305C13.7008 12.2831 13.7883 12.0096 13.7555 11.9221C13.7391 11.7198 13.4875 11.6104 13.493 11.5229C13.4493 11.3589 13.6024 11.3315 13.7118 11.3534H13.7063Z" fill="white"/>
<path fill-rule="evenodd" clip-rule="evenodd" d="M18.0604 11.9324C18.2901 11.9434 18.4049 12.1293 18.1916 12.2059C17.9729 12.277 17.7705 12.3371 17.7651 12.6434C17.8471 13.0809 17.6557 12.9277 17.5463 12.873C17.4151 12.7746 17.0432 12.5449 16.9885 12.0527C16.983 11.9379 17.076 11.834 17.2237 11.834C17.4424 11.8941 17.7705 11.8996 18.0604 11.9324Z" fill="#165D31"/>
<path fill-rule="evenodd" clip-rule="evenodd" d="M8.90025 6.80297C9.16275 6.87953 9.17916 7.27328 9.16275 7.38813C9.12447 7.59594 9.0315 7.82016 8.96588 7.79281C8.88931 7.76547 8.96588 7.48109 8.9276 7.39359C8.88931 7.27328 8.6651 7.04359 8.68697 6.97797C8.63775 6.84125 8.79635 6.77563 8.90025 6.80297ZM14.1448 8.64047C13.937 8.74984 13.8604 9.07797 13.9862 9.27484C14.1065 9.43891 14.2924 9.37875 14.3143 9.37875C14.5167 9.40063 14.637 9.00141 14.637 9.00141C14.637 9.00141 14.6424 8.89203 14.4073 9.10531C14.3034 9.12172 14.2979 9.08344 14.2706 9.02875C14.2455 8.92464 14.2551 8.8152 14.2979 8.71703C14.3362 8.61859 14.2596 8.57484 14.1448 8.64047ZM15.676 6.64984C15.5667 6.72094 15.3643 6.93422 15.3588 7.17484C15.3534 7.31156 15.326 7.31156 15.4135 7.39359C15.4846 7.49203 15.5448 7.48656 15.676 7.41547C15.709 7.39514 15.7372 7.36806 15.7589 7.336C15.7806 7.30395 15.7952 7.26766 15.8018 7.22953C15.8346 7.07641 15.6378 7.30609 15.6159 7.13109C15.5721 6.96703 15.6979 6.90141 15.8182 6.74828C15.8182 6.63891 15.8182 6.56781 15.6706 6.64984H15.676ZM16.901 6.86859C16.853 7.06776 16.8237 7.27099 16.8135 7.47563C16.7807 7.62875 16.9776 7.69438 17.0596 7.4975C17.1909 7.14203 17.1909 6.98891 17.2018 6.84125C17.1635 6.60609 17.0049 6.61156 16.901 6.86859ZM24.6667 10.8225C24.6885 10.7952 25.7604 10.035 25.7604 10.035C25.8698 9.99672 25.8424 10.4288 25.7932 10.4233C25.4607 10.7435 25.0784 11.0076 24.6612 11.2053C24.6065 11.2436 24.5573 10.9155 24.6612 10.8225H24.6667ZM25.6346 10.8116C25.826 10.9045 25.9026 11.4569 25.8807 11.6045C25.8807 11.8998 25.7003 12.1295 25.6237 12.0967C25.5471 12.0584 25.6346 11.7303 25.5963 11.6155C25.5526 11.4514 25.394 11.1506 25.4213 11.0631C25.3667 10.8772 25.5198 10.7788 25.6401 10.8116H25.6346ZM19.2909 13.185C19.3796 13.0815 19.4827 12.9912 19.5971 12.917C19.7065 12.8623 19.8049 12.9608 19.7995 12.9553C19.8159 13.0647 19.7338 13.1577 19.7612 13.2998C19.7831 13.3545 19.7995 13.4202 19.9034 13.3983C20.0729 13.2616 20.2315 13.2506 20.3956 13.2452C20.5323 13.2506 20.5378 13.4748 20.4503 13.4748C20.1385 13.5405 20.0018 13.628 19.7776 13.71C19.6682 13.7756 19.5807 13.6936 19.5807 13.6881C19.5807 13.6827 19.5206 13.628 19.5588 13.4858C19.5698 13.3691 19.526 13.3144 19.4276 13.3217C19.362 13.3655 19.2963 13.3873 19.2635 13.3053C19.2417 13.2543 19.2508 13.2142 19.2909 13.185ZM26.7612 13.4803C26.8049 13.535 26.8378 13.5897 26.7557 13.6881L26.5534 13.8631C26.5206 13.9178 26.4987 14.0163 26.6081 14.0436C26.8049 14.0983 27.2643 13.7975 27.2643 13.792C27.3409 13.7373 27.319 13.628 27.3081 13.628C27.2643 13.5788 27.1659 13.6116 27.1003 13.6006C27.0674 13.6006 26.9635 13.5897 27.0128 13.4913C27.0498 13.4431 27.0793 13.3896 27.1003 13.3327C27.1331 13.2707 27.0966 13.2215 26.9909 13.185C26.876 13.1631 26.8268 13.1741 26.701 13.185C26.6427 13.1923 26.6081 13.2342 26.5971 13.3108C26.6026 13.4366 26.6792 13.4311 26.7612 13.4748V13.4803Z" fill="white"/>
<path fill-rule="evenodd" clip-rule="evenodd" d="M19.3284 10.374C19.301 10.4287 19.2026 10.4287 19.1096 10.374C19.0166 10.3193 18.962 10.2318 18.9948 10.1826C19.0276 10.1334 19.1205 10.1334 19.2135 10.1826C19.3065 10.2318 19.3557 10.3248 19.3284 10.374ZM14.4612 7.44277C14.4065 7.45918 14.3299 7.40996 14.2971 7.3334C14.2643 7.25684 14.2807 7.19121 14.3354 7.1748C14.3901 7.1584 14.4612 7.21309 14.4995 7.28418C14.5377 7.35527 14.5159 7.43184 14.4557 7.44824L14.4612 7.44277ZM24.0916 20.5076C24.6057 20.5295 25.087 20.5076 25.5955 20.535C25.6885 20.617 25.6229 20.8084 25.5627 20.7975L25.1362 20.7811C25.1307 20.617 24.7151 20.6443 24.726 20.7865C24.5018 20.8139 24.2995 20.7811 24.0698 20.7701C24.0041 20.6881 24.0151 20.5404 24.0916 20.5076Z" fill="#165D31"/>
</g>
</g>
<defs>
<clipPath id="clip0_3909_9161">
<rect width="37.3333" height="28" rx="2" fill="white"/>
</clipPath>
</defs>
</svg>
