<svg width="37" height="28" viewBox="0 0 37 28" fill="none" xmlns="http://www.w3.org/2000/svg">
<g clip-path="url(#clip0_3909_9124)">
<path d="M8.67766 0H28.3166V28H8.67188L8.67766 0Z" fill="white"/>
<path d="M-1.13867 0H8.67789V28H-1.13867V0ZM28.3168 0H38.1334V28H28.3226L28.3168 0ZM11.6205 13.5333L10.8516 13.79L14.4013 16.94C14.673 17.7392 14.3088 17.9783 14.0776 18.3983L17.9279 17.9083L17.8354 21.8167L18.639 21.7992L18.4598 17.9142L22.3159 18.3808C22.0788 17.8733 21.8649 17.605 22.0846 16.7942L25.6285 13.8192L25.0099 13.5858C24.5012 13.1892 25.2296 11.6842 25.3337 10.7333C25.3337 10.7333 23.2698 11.4508 23.1368 11.0717L22.6049 10.0508L20.7202 12.1392C20.5179 12.1917 20.4312 12.11 20.3791 11.935L21.2463 7.57167L19.8704 8.35333C19.7471 8.40389 19.6469 8.36111 19.5698 8.225L18.2401 5.54167L16.8757 8.33C16.7678 8.42722 16.6714 8.44083 16.5866 8.37083L15.2627 7.63L16.0548 11.9525C15.9912 12.1275 15.8409 12.1742 15.6674 12.0808L13.8637 10.0217C13.6324 10.4008 13.4705 11.0192 13.1584 11.1592C12.8462 11.2992 11.7998 10.8967 11.1002 10.7508C11.343 11.6142 12.083 13.0608 11.6205 13.5333Z" fill="#D52B1E"/>
</g>
<defs>
<clipPath id="clip0_3909_9124">
<rect width="37" height="28" rx="2" fill="white"/>
</clipPath>
</defs>
</svg>
