<svg width="32" height="32" viewBox="0 0 32 32" fill="none" xmlns="http://www.w3.org/2000/svg">
<path fill-rule="evenodd" clip-rule="evenodd" d="M16 0.097168C24.8365 0.097168 32 7.26067 32 16.0972C32 24.0833 26.149 30.7025 18.5 31.9028V20.7222H22.2281L22.9375 16.0972H18.5V13.0959C18.5 12.7994 18.534 12.5047 18.6117 12.2271C18.8241 11.4683 19.3629 10.8382 20.4248 10.6526C20.632 10.6164 20.859 10.5972 21.1075 10.5972H23.125V6.65967C23.125 6.65967 21.294 6.34717 19.5435 6.34717C19.5435 6.34717 19.5434 6.34717 19.5434 6.34717C19.4292 6.34717 19.3163 6.34933 19.2046 6.35364C18.8564 6.36709 18.5206 6.40143 18.1981 6.45627C16.555 6.73571 15.2594 7.54752 14.4485 8.84033C13.8359 9.81709 13.5 11.0684 13.5 12.5722V16.0972H9.4375V20.7222H13.5V31.9028C5.851 30.7025 0 24.0832 0 16.0972C0 7.26067 7.1635 0.097168 16 0.097168Z" fill="white"/>
</svg>
