<svg width="32" height="32" viewBox="0 0 32 32" fill="none" xmlns="http://www.w3.org/2000/svg">
<path d="M15.9993 10.6743C13.0508 10.6743 10.6738 13.0743 10.6738 16C10.6738 18.9257 13.0737 21.3257 15.9993 21.3257C18.9249 21.3257 21.3248 18.9257 21.3248 16C21.3248 13.0743 18.9249 10.6743 15.9993 10.6743ZM31.9986 16C31.9986 13.7829 31.9986 11.6114 31.8843 9.39429C31.77 6.83429 31.1758 4.54857 29.3015 2.69714C27.4273 0.822857 25.1646 0.228571 22.6047 0.114286C20.3877 -1.10694e-07 18.2163 0 15.9993 0C13.7822 0 11.6109 -1.10694e-07 9.39387 0.114286C6.83398 0.228571 4.54837 0.822857 2.69702 2.69714C0.822821 4.57143 0.228561 6.83429 0.114281 9.39429C-1.10689e-07 11.6114 0 13.7829 0 16C0 18.2171 -1.10689e-07 20.3886 0.114281 22.6057C0.228561 25.1657 0.822821 27.4514 2.69702 29.3029C4.57122 31.1771 6.83398 31.7714 9.39387 31.8857C11.6109 32 13.7822 32 15.9993 32C18.2163 32 20.3877 32 22.6047 31.8857C25.1646 31.7714 27.4502 31.1771 29.3015 29.3029C31.1758 27.4286 31.77 25.1657 31.8843 22.6057C32.0214 20.4114 31.9986 18.2171 31.9986 16ZM15.9993 24.2057C11.4509 24.2057 7.79394 20.5486 7.79394 16C7.79394 11.4514 11.4509 7.79429 15.9993 7.79429C20.5477 7.79429 24.2046 11.4514 24.2046 16C24.2046 20.5486 20.5477 24.2057 15.9993 24.2057ZM24.5475 9.37143C23.4961 9.37143 22.6276 8.52571 22.6276 7.45143C22.6276 6.37714 23.4732 5.53143 24.5475 5.53143C25.6217 5.53143 26.4674 6.37714 26.4674 7.45143C26.4732 7.7018 26.4275 7.95069 26.3331 8.18266C26.2388 8.41464 26.0977 8.62476 25.9188 8.8C25.7436 8.97891 25.5335 9.11992 25.3015 9.21428C25.0696 9.30865 24.8207 9.35436 24.5703 9.34857L24.5475 9.37143Z" fill="white"/>
</svg>
