<svg width="37" height="28" viewBox="0 0 37 28" fill="none" xmlns="http://www.w3.org/2000/svg">
<g clip-path="url(#clip0_3909_9127)">
<path d="M0 0H37V28H0" fill="#BD3D44"/>
<path d="M0 3.22559H37H0ZM0 7.52475H37H0ZM0 11.8414H37H0ZM0 16.1581H37H0ZM0 20.4748H37H0ZM0 24.7914H37H0Z" fill="black"/>
<path d="M0 2.14648V4.30482H37V2.14648H0ZM0 6.44565V8.60398H37V6.44565H0ZM0 10.7623V12.9207H37V10.7623H0ZM0 15.079V17.2373H37V15.079H0ZM0 19.3957V21.554H37V19.3957H0ZM0 23.7123V25.8707H37V23.7123H0Z" fill="white"/>
<path d="M0 0H21.09V15.0792H0" fill="#192F5D"/>
<path d="M19.3092 12.7166L19.8295 14.2916L18.4998 13.2999H20.1186L18.7889 14.2916L19.3092 12.7166ZM15.8404 12.7166L16.3607 14.2916L15.0311 13.2999H16.6498L15.3201 14.2916L15.8404 12.7166ZM12.3139 12.7166L12.8342 14.2916L11.5045 13.2999H13.1232L11.7936 14.2916L12.3139 12.7166ZM8.7873 12.7166L9.30762 14.2916L7.97793 13.2999H9.59668L8.26699 14.2916L8.7873 12.7166ZM5.26074 12.7166L5.78105 14.2916L4.45137 13.2999H6.07012L4.74043 14.2916L5.26074 12.7166ZM1.73418 12.7166L2.25449 14.2916L0.924805 13.2999H2.54355L1.21387 14.2916L1.73418 12.7166ZM17.5748 11.1999L18.0951 12.7749L16.7654 11.7833H18.3842L17.0545 12.7749L17.5748 11.1999ZM14.0482 11.1999L14.5686 12.7749L13.2389 11.7833H14.8576L13.5279 12.7749L14.0482 11.1999ZM10.5795 11.1999L11.0998 12.7749L9.77012 11.7833H11.3889L10.0592 12.7749L10.5795 11.1999ZM7.05293 11.1999L7.57324 12.7749L6.24355 11.7833H7.8623L6.53262 12.7749L7.05293 11.1999ZM3.52637 11.1999L4.04668 12.7749L2.71699 11.7833H4.33574L3.00605 12.7749L3.52637 11.1999ZM19.3092 9.68327L19.8295 11.2583L18.4998 10.2666H20.1186L18.7889 11.2583L19.3092 9.68327ZM15.8404 9.68327L16.3607 11.2583L15.0311 10.2666H16.6498L15.3201 11.2583L15.8404 9.68327ZM12.3139 9.68327L12.8342 11.2583L11.5045 10.2666H13.1232L11.7936 11.2583L12.3139 9.68327ZM8.7873 9.68327L9.30762 11.2583L7.97793 10.2666H9.59668L8.26699 11.2583L8.7873 9.68327ZM5.26074 9.68327L5.78105 11.2583L4.45137 10.2666H6.07012L4.74043 11.2583L5.26074 9.68327ZM1.73418 9.68327L2.25449 11.2583L0.924805 10.2666H2.54355L1.21387 11.2583L1.73418 9.68327ZM17.5748 8.22493L18.0951 9.79993L16.7654 8.80827H18.3842L17.0545 9.79993L17.5748 8.22493ZM14.0482 8.22493L14.5686 9.79993L13.2389 8.80827H14.8576L13.5279 9.79993L14.0482 8.22493ZM10.5795 8.22493L11.0998 9.79993L9.77012 8.80827H11.3889L10.0592 9.79993L10.5795 8.22493ZM7.05293 8.22493L7.57324 9.79993L6.24355 8.80827H7.8623L6.53262 9.79993L7.05293 8.22493ZM3.52637 8.22493L4.04668 9.79993L2.71699 8.80827H4.33574L3.00605 9.79993L3.52637 8.22493ZM19.3092 6.70827L19.8295 8.28327L18.4998 7.2916H20.1186L18.7889 8.28327L19.3092 6.70827ZM15.8404 6.70827L16.3607 8.28327L15.0311 7.2916H16.6498L15.3201 8.28327L15.8404 6.70827ZM12.3139 6.70827L12.8342 8.28327L11.5045 7.2916H13.1232L11.7936 8.28327L12.3139 6.70827ZM8.7873 6.70827L9.30762 8.28327L7.97793 7.2916H9.59668L8.26699 8.28327L8.7873 6.70827ZM5.26074 6.70827L5.78105 8.28327L4.45137 7.2916H6.07012L4.74043 8.28327L5.26074 6.70827ZM1.73418 6.70827L2.25449 8.28327L0.924805 7.2916H2.54355L1.21387 8.28327L1.73418 6.70827ZM17.5748 5.1916L18.0951 6.7666L16.7654 5.77493H18.3842L17.0545 6.7666L17.5748 5.1916ZM14.0482 5.1916L14.5686 6.7666L13.2389 5.77493H14.8576L13.5279 6.7666L14.0482 5.1916ZM10.5795 5.1916L11.0998 6.7666L9.77012 5.77493H11.3889L10.0592 6.7666L10.5795 5.1916ZM7.05293 5.1916L7.57324 6.7666L6.24355 5.77493H7.8623L6.53262 6.7666L7.05293 5.1916ZM3.52637 5.1916L4.04668 6.7666L2.71699 5.77493H4.33574L3.00605 6.7666L3.52637 5.1916ZM19.3092 3.67493L19.8295 5.24993L18.4998 4.25827H20.1186L18.7889 5.24993L19.3092 3.67493ZM15.8404 3.67493L16.3607 5.24993L15.0311 4.25827H16.6498L15.3201 5.24993L15.8404 3.67493ZM12.3139 3.67493L12.8342 5.24993L11.5045 4.25827H13.1232L11.7936 5.24993L12.3139 3.67493ZM8.7873 3.67493L9.30762 5.24993L7.97793 4.25827H9.59668L8.26699 5.24993L8.7873 3.67493ZM5.26074 3.67493L5.78105 5.24993L4.45137 4.25827H6.07012L4.74043 5.24993L5.26074 3.67493ZM1.73418 3.67493L2.25449 5.24993L0.924805 4.25827H2.54355L1.21387 5.24993L1.73418 3.67493ZM17.5748 2.15827L18.0951 3.73327L16.7654 2.7416H18.3842L17.0545 3.73327L17.5748 2.15827ZM14.0482 2.15827L14.5686 3.73327L13.2389 2.7416H14.8576L13.5279 3.73327L14.0482 2.15827ZM10.5795 2.15827L11.0998 3.73327L9.77012 2.7416H11.3889L10.0592 3.73327L10.5795 2.15827ZM7.05293 2.15827L7.57324 3.73327L6.24355 2.7416H7.8623L6.53262 3.73327L7.05293 2.15827ZM3.52637 2.15827L4.04668 3.73327L2.71699 2.7416H4.33574L3.00605 3.73327L3.52637 2.15827ZM19.3092 0.641602L19.8295 2.2166L18.4998 1.22493H20.1186L18.7889 2.2166L19.3092 0.641602ZM15.8404 0.641602L16.3607 2.2166L15.0311 1.22493H16.6498L15.3201 2.2166L15.8404 0.641602ZM12.3139 0.641602L12.8342 2.2166L11.5045 1.22493H13.1232L11.7936 2.2166L12.3139 0.641602ZM8.7873 0.641602L9.30762 2.2166L7.97793 1.22493H9.59668L8.26699 2.2166L8.7873 0.641602ZM5.26074 0.641602L5.78105 2.2166L4.45137 1.22493H6.07012L4.74043 2.2166L5.26074 0.641602ZM1.73418 0.641602L2.25449 2.2166L0.924805 1.22493H2.54355L1.21387 2.2166L1.73418 0.641602Z" fill="white"/>
</g>
<defs>
<clipPath id="clip0_3909_9127">
<rect width="37" height="28" rx="2" fill="white"/>
</clipPath>
</defs>
</svg>
